# xmcd
#
# Track frame offsets: 
#        150
#        19201
#        34116
#        54952
#        74274
#        93285
#        111567
#        131323
#        150312
#        171671
#        187661
#        203985
#
# Disc length: 2997 seconds
#
# Revision: 10
# Processed by: cddbd v1.5.2PL0 Copyright (c) Steve Scherf et al.
# Submitted via: ExactAudioCopy v1.3
#
DISCID=9b0bb30c
DTITLE=Bon Jovi - Lost Highway
DYEAR=2007
DGENRE=Rock
TTITLE0=Lost Highway[英]
TTITLE1=Summertime[英]
TTITLE2=Make A Memory[英]
TTITLE3=Whole Lot Of Leavin'[英]
TTITLE4=Bon Jovi and Big and Rich - We Got It Going On[英]
TTITLE5=Any Other Day[英]
TTITLE6=Seat Next To You[英]
TTITLE7=Everybody's Broken[英]
TTITLE8=Bon Jovi and Leann Rimes - Till We Ain't Strangers Anymore[英]
TTITLE9=The Last Night[英]
TTITLE10=One Step Closer[英]
TTITLE11=I Love This Town[英]
EXTD=by Diddl
EXTT0=
EXTT1=
EXTT2=
EXTT3=
EXTT4=
EXTT5=
EXTT6=
EXTT7=
EXTT8=
EXTT9=
EXTT10=
EXTT11=
PLAYORDER=
